<?xml version="1.0" encoding="UTF-8" standalone="no"?>
<!DOCTYPE svg PUBLIC "-//W3C//DTD SVG 1.1//EN"
 "http://www.w3.org/Graphics/SVG/1.1/DTD/svg11.dtd">
<!-- Generated by graphviz version 2.40.1 (20161225.0304)
 -->
<!-- Title: pipeline Pages: 1 -->
<svg width="534pt" height="332pt"
 viewBox="0.00 0.00 534.00 332.00" xmlns="http://www.w3.org/2000/svg" xmlns:xlink="http://www.w3.org/1999/xlink">
<g id="graph0" class="graph" transform="scale(1 1) rotate(0) translate(4 328)">
<title>pipeline</title>
<polygon fill="#ffffff" stroke="transparent" points="-4,4 -4,-328 530,-328 530,4 -4,4"/>
<!-- dataset -->
<g id="node1" class="node">
<title>dataset</title>
<path fill="none" stroke="#000000" d="M526,-320.7273C526,-322.5331 488.3499,-324 442,-324 395.6501,-324 358,-322.5331 358,-320.7273 358,-320.7273 358,-291.2727 358,-291.2727 358,-289.4669 395.6501,-288 442,-288 488.3499,-288 526,-289.4669 526,-291.2727 526,-291.2727 526,-320.7273 526,-320.7273"/>
<path fill="none" stroke="#000000" d="M526,-320.7273C526,-318.9214 488.3499,-317.4545 442,-317.4545 395.6501,-317.4545 358,-318.9214 358,-320.7273"/>
<text text-anchor="start" x="366" y="-303.3" font-family="Courier,monospace" font-style="italic" font-size="14.00" fill="#000000">dataset</text>
<text text-anchor="start" x="425" y="-303.3" font-family="Courier,monospace" font-size="14.00" fill="#000000">.{csv,json}</text>
</g>
<!-- synth_method -->
<g id="node2" class="node">
<title>synth_method</title>
<polygon fill="none" stroke="#000000" points="336.5,-252 67.5,-252 67.5,-216 336.5,-216 336.5,-252"/>
<text text-anchor="start" x="75.5" y="-231.3" font-family="Courier,monospace" font-size="14.00" fill="#000000">synth&#45;methods/</text>
<text text-anchor="start" x="193.5" y="-231.3" font-family="Courier,monospace" font-style="italic" font-size="14.00" fill="#000000">synth&#45;method</text>
<text text-anchor="start" x="294.5" y="-231.3" font-family="Courier,monospace" font-size="14.00" fill="#000000">/run</text>
</g>
<!-- dataset&#45;&gt;synth_method -->
<g id="edge3" class="edge">
<title>dataset&#45;&gt;synth_method</title>
<path fill="none" stroke="#000000" d="M369,-288.937C369,-267.6456 369,-234 369,-234 369,-234 346.8007,-234 346.8007,-234"/>
<polygon fill="#000000" stroke="#000000" points="346.8008,-230.5001 336.8007,-234 346.8007,-237.5001 346.8008,-230.5001"/>
</g>
<!-- privacy_metrics -->
<g id="node5" class="node">
<title>privacy_metrics</title>
<polygon fill="none" stroke="#000000" points="525.5,-108 366.5,-108 366.5,-72 525.5,-72 525.5,-108"/>
<text text-anchor="middle" x="446" y="-86.3" font-family="Courier,monospace" font-size="14.00" fill="#000000">utility&#45;metrics/*</text>
</g>
<!-- dataset&#45;&gt;privacy_metrics -->
<g id="edge11" class="edge">
<title>dataset&#45;&gt;privacy_metrics</title>
<path fill="none" stroke="#000000" d="M489.125,-287.9555C489.125,-287.9555 489.125,-118.1451 489.125,-118.1451"/>
<polygon fill="#000000" stroke="#000000" points="492.6251,-118.145 489.125,-108.1451 485.6251,-118.1451 492.6251,-118.145"/>
</g>
<!-- utility_metrics -->
<g id="node6" class="node">
<title>utility_metrics</title>
<polygon fill="none" stroke="#000000" points="313.5,-108 154.5,-108 154.5,-72 313.5,-72 313.5,-108"/>
<text text-anchor="middle" x="234" y="-86.3" font-family="Courier,monospace" font-size="14.00" fill="#000000">privacy&#45;metrics/*</text>
</g>
<!-- dataset&#45;&gt;utility_metrics -->
<g id="edge7" class="edge">
<title>dataset&#45;&gt;utility_metrics</title>
<path fill="none" stroke="#000000" d="M452.75,-287.7501C452.75,-241.9888 452.75,-126 452.75,-126 452.75,-126 260.5,-126 260.5,-126 260.5,-126 260.5,-118.4218 260.5,-118.4218"/>
<polygon fill="#000000" stroke="#000000" points="264.0001,-118.4218 260.5,-108.4218 257.0001,-118.4219 264.0001,-118.4218"/>
</g>
<!-- synth_data -->
<g id="node4" class="node">
<title>synth_data</title>
<path fill="none" stroke="#000000" d="M380,-176.7273C380,-178.5331 298.8729,-180 199,-180 99.1271,-180 18,-178.5331 18,-176.7273 18,-176.7273 18,-147.2727 18,-147.2727 18,-145.4669 99.1271,-144 199,-144 298.8729,-144 380,-145.4669 380,-147.2727 380,-147.2727 380,-176.7273 380,-176.7273"/>
<path fill="none" stroke="#000000" d="M380,-176.7273C380,-174.9214 298.8729,-173.4545 199,-173.4545 99.1271,-173.4545 18,-174.9214 18,-176.7273"/>
<text text-anchor="start" x="26" y="-159.3" font-family="Courier,monospace" font-size="14.00" fill="#000000">synth&#45;output/</text>
<text text-anchor="start" x="136" y="-159.3" font-family="Courier,monospace" font-style="italic" font-size="14.00" fill="#000000">example</text>
<text text-anchor="start" x="195" y="-159.3" font-family="Courier,monospace" font-size="14.00" fill="#000000">/synthetic_data_*.csv</text>
</g>
<!-- synth_method&#45;&gt;synth_data -->
<g id="edge2" class="edge">
<title>synth_method&#45;&gt;synth_data</title>
<path fill="none" stroke="#000000" d="M202,-215.8314C202,-215.8314 202,-190.4133 202,-190.4133"/>
<polygon fill="#000000" stroke="#000000" points="205.5001,-190.4132 202,-180.4133 198.5001,-190.4133 205.5001,-190.4132"/>
</g>
<!-- run_inputs -->
<g id="node3" class="node">
<title>run_inputs</title>
<polygon fill="none" stroke="#000000" points="332.7619,-324 124.749,-324 71.2381,-288 279.251,-288 332.7619,-324"/>
<text text-anchor="start" x="104.5" y="-303.3" font-family="Courier,monospace" font-size="14.00" fill="#000000">run&#45;inputs/</text>
<text text-anchor="start" x="197.5" y="-303.3" font-family="Courier,monospace" font-style="italic" font-size="14.00" fill="#000000">example</text>
<text text-anchor="start" x="256.5" y="-303.3" font-family="Courier,monospace" font-size="14.00" fill="#000000">.json</text>
</g>
<!-- run_inputs&#45;&gt;synth_method -->
<g id="edge1" class="edge">
<title>run_inputs&#45;&gt;synth_method</title>
<path fill="none" stroke="#000000" d="M158.4564,-287.8314C158.4564,-287.8314 158.4564,-262.4133 158.4564,-262.4133"/>
<polygon fill="#000000" stroke="#000000" points="161.9565,-262.4132 158.4564,-252.4133 154.9565,-262.4133 161.9565,-262.4132"/>
</g>
<!-- run_inputs&#45;&gt;privacy_metrics -->
<g id="edge10" class="edge">
<title>run_inputs&#45;&gt;privacy_metrics</title>
<path fill="none" stroke="#000000" d="M245.5436,-288C245.5436,-279 245.5436,-270 245.5436,-270 245.5436,-270 416.375,-270 416.375,-270 416.375,-270 416.375,-118.2499 416.375,-118.2499"/>
<polygon fill="#000000" stroke="#000000" points="419.8751,-118.2499 416.375,-108.2499 412.8751,-118.25 419.8751,-118.2499"/>
</g>
<!-- run_inputs&#45;&gt;utility_metrics -->
<g id="edge6" class="edge">
<title>run_inputs&#45;&gt;utility_metrics</title>
<path fill="none" stroke="#000000" d="M97.7456,-306C48.3534,-306 0,-306 0,-306 0,-306 0,-90 0,-90 0,-90 144.4518,-90 144.4518,-90"/>
<polygon fill="#000000" stroke="#000000" points="144.4518,-93.5001 154.4518,-90 144.4517,-86.5001 144.4518,-93.5001"/>
</g>
<!-- synth_data&#45;&gt;privacy_metrics -->
<g id="edge8" class="edge">
<title>synth_data&#45;&gt;privacy_metrics</title>
<path fill="none" stroke="#000000" d="M373.25,-145.3008C373.25,-145.3008 373.25,-118.1222 373.25,-118.1222"/>
<polygon fill="#000000" stroke="#000000" points="376.7501,-118.1221 373.25,-108.1222 369.7501,-118.1222 376.7501,-118.1221"/>
</g>
<!-- synth_data&#45;&gt;utility_metrics -->
<g id="edge4" class="edge">
<title>synth_data&#45;&gt;utility_metrics</title>
<path fill="none" stroke="#000000" d="M207.5,-143.8314C207.5,-143.8314 207.5,-118.4133 207.5,-118.4133"/>
<polygon fill="#000000" stroke="#000000" points="211.0001,-118.4132 207.5,-108.4133 204.0001,-118.4133 211.0001,-118.4132"/>
</g>
<!-- metrics -->
<g id="node7" class="node">
<title>metrics</title>
<path fill="none" stroke="#000000" d="M469.5,-32.7273C469.5,-34.5331 403.3881,-36 322,-36 240.6119,-36 174.5,-34.5331 174.5,-32.7273 174.5,-32.7273 174.5,-3.2727 174.5,-3.2727 174.5,-1.4669 240.6119,0 322,0 403.3881,0 469.5,-1.4669 469.5,-3.2727 469.5,-3.2727 469.5,-32.7273 469.5,-32.7273"/>
<path fill="none" stroke="#000000" d="M469.5,-32.7273C469.5,-30.9214 403.3881,-29.4545 322,-29.4545 240.6119,-29.4545 174.5,-30.9214 174.5,-32.7273"/>
<text text-anchor="start" x="182.5" y="-15.3" font-family="Courier,monospace" font-size="14.00" fill="#000000">synth&#45;output/</text>
<text text-anchor="start" x="292.5" y="-15.3" font-family="Courier,monospace" font-style="italic" font-size="14.00" fill="#000000">example</text>
<text text-anchor="start" x="351.5" y="-15.3" font-family="Courier,monospace" font-size="14.00" fill="#000000">/metrics.json</text>
</g>
<!-- privacy_metrics&#45;&gt;metrics -->
<g id="edge9" class="edge">
<title>privacy_metrics&#45;&gt;metrics</title>
<path fill="none" stroke="#000000" d="M418,-71.8314C418,-71.8314 418,-45.9134 418,-45.9134"/>
<polygon fill="#000000" stroke="#000000" points="421.5001,-45.9134 418,-35.9134 414.5001,-45.9134 421.5001,-45.9134"/>
</g>
<!-- utility_metrics&#45;&gt;metrics -->
<g id="edge5" class="edge">
<title>utility_metrics&#45;&gt;metrics</title>
<path fill="none" stroke="#000000" d="M244,-71.8314C244,-71.8314 244,-46.4133 244,-46.4133"/>
<polygon fill="#000000" stroke="#000000" points="247.5001,-46.4132 244,-36.4133 240.5001,-46.4133 247.5001,-46.4132"/>
</g>
</g>
</svg>
