<?xml version="1.0" encoding="UTF-8" standalone="no"?>
<!DOCTYPE svg PUBLIC "-//W3C//DTD SVG 1.1//EN"
 "http://www.w3.org/Graphics/SVG/1.1/DTD/svg11.dtd">
<!-- Generated by graphviz version 2.40.1 (20161225.0304)
 -->
<!-- Title: pipeline Pages: 1 -->
<svg width="784pt" height="346pt"
 viewBox="0.00 0.00 784.00 345.50" xmlns="http://www.w3.org/2000/svg" xmlns:xlink="http://www.w3.org/1999/xlink">
<g id="graph0" class="graph" transform="scale(1 1) rotate(0) translate(4 341.5)">
<title>pipeline</title>
<polygon fill="#ffffff" stroke="transparent" points="-4,4 -4,-341.5 780,-341.5 780,4 -4,4"/>
<!-- dataset -->
<g id="node1" class="node">
<title>dataset</title>
<path fill="none" stroke="#000000" d="M637,-334.2273C637,-336.0331 599.3499,-337.5 553,-337.5 506.6501,-337.5 469,-336.0331 469,-334.2273 469,-334.2273 469,-304.7727 469,-304.7727 469,-302.9669 506.6501,-301.5 553,-301.5 599.3499,-301.5 637,-302.9669 637,-304.7727 637,-304.7727 637,-334.2273 637,-334.2273"/>
<path fill="none" stroke="#000000" d="M637,-334.2273C637,-332.4214 599.3499,-330.9545 553,-330.9545 506.6501,-330.9545 469,-332.4214 469,-334.2273"/>
<text text-anchor="start" x="477" y="-316.8" font-family="Courier,monospace" font-style="italic" font-size="14.00" fill="#000000">dataset</text>
<text text-anchor="start" x="536" y="-316.8" font-family="Courier,monospace" font-size="14.00" fill="#000000">.{csv,json}</text>
</g>
<!-- synth_method -->
<g id="node2" class="node">
<title>synth_method</title>
<polygon fill="none" stroke="#000000" points="447.5,-265.5 178.5,-265.5 178.5,-229.5 447.5,-229.5 447.5,-265.5"/>
<text text-anchor="start" x="186.5" y="-244.8" font-family="Courier,monospace" font-size="14.00" fill="#000000">synth&#45;methods/</text>
<text text-anchor="start" x="304.5" y="-244.8" font-family="Courier,monospace" font-style="italic" font-size="14.00" fill="#000000">synth&#45;method</text>
<text text-anchor="start" x="405.5" y="-244.8" font-family="Courier,monospace" font-size="14.00" fill="#000000">/run</text>
</g>
<!-- dataset&#45;&gt;synth_method -->
<g id="edge3" class="edge">
<title>dataset&#45;&gt;synth_method</title>
<path fill="none" stroke="#000000" d="M480,-302.3185C480,-280.8793 480,-247 480,-247 480,-247 457.8007,-247 457.8007,-247"/>
<polygon fill="#000000" stroke="#000000" points="457.8008,-243.5001 447.8007,-247 457.8007,-250.5001 457.8008,-243.5001"/>
</g>
<!-- privacy_metrics -->
<g id="node5" class="node">
<title>privacy_metrics</title>
<polygon fill="none" stroke="#000000" points="636.5,-121.5 477.5,-121.5 477.5,-85.5 636.5,-85.5 636.5,-121.5"/>
<text text-anchor="middle" x="557" y="-99.8" font-family="Courier,monospace" font-size="14.00" fill="#000000">privacy&#45;metrics/*</text>
</g>
<!-- dataset&#45;&gt;privacy_metrics -->
<g id="edge11" class="edge">
<title>dataset&#45;&gt;privacy_metrics</title>
<path fill="none" stroke="#000000" d="M600.125,-301.4555C600.125,-301.4555 600.125,-131.6451 600.125,-131.6451"/>
<polygon fill="#000000" stroke="#000000" points="603.6251,-131.645 600.125,-121.6451 596.6251,-131.6451 603.6251,-131.645"/>
</g>
<!-- utility_metrics -->
<g id="node6" class="node">
<title>utility_metrics</title>
<polygon fill="none" stroke="#000000" points="352.5,-121.5 193.5,-121.5 193.5,-85.5 352.5,-85.5 352.5,-121.5"/>
<text text-anchor="middle" x="273" y="-99.8" font-family="Courier,monospace" font-size="14.00" fill="#000000">utility&#45;metrics/*</text>
</g>
<!-- dataset&#45;&gt;utility_metrics -->
<g id="edge7" class="edge">
<title>dataset&#45;&gt;utility_metrics</title>
<path fill="none" stroke="#000000" d="M527.375,-301.1994C527.375,-255.311 527.375,-139 527.375,-139 527.375,-139 299.5,-139 299.5,-139 299.5,-139 299.5,-131.666 299.5,-131.666"/>
<polygon fill="#000000" stroke="#000000" points="303.0001,-131.6659 299.5,-121.666 296.0001,-131.666 303.0001,-131.6659"/>
</g>
<!-- synth_data -->
<g id="node4" class="node">
<title>synth_data</title>
<path fill="none" stroke="#000000" d="M491,-190.2273C491,-192.0331 409.8729,-193.5 310,-193.5 210.1271,-193.5 129,-192.0331 129,-190.2273 129,-190.2273 129,-160.7727 129,-160.7727 129,-158.9669 210.1271,-157.5 310,-157.5 409.8729,-157.5 491,-158.9669 491,-160.7727 491,-160.7727 491,-190.2273 491,-190.2273"/>
<path fill="none" stroke="#000000" d="M491,-190.2273C491,-188.4214 409.8729,-186.9545 310,-186.9545 210.1271,-186.9545 129,-188.4214 129,-190.2273"/>
<text text-anchor="start" x="137" y="-172.8" font-family="Courier,monospace" font-size="14.00" fill="#000000">synth&#45;output/</text>
<text text-anchor="start" x="247" y="-172.8" font-family="Courier,monospace" font-style="italic" font-size="14.00" fill="#000000">example</text>
<text text-anchor="start" x="306" y="-172.8" font-family="Courier,monospace" font-size="14.00" fill="#000000">/synthetic_data_*.csv</text>
</g>
<!-- synth_method&#45;&gt;synth_data -->
<g id="edge2" class="edge">
<title>synth_method&#45;&gt;synth_data</title>
<path fill="none" stroke="#000000" d="M313,-229.3314C313,-229.3314 313,-203.9133 313,-203.9133"/>
<polygon fill="#000000" stroke="#000000" points="316.5001,-203.9132 313,-193.9133 309.5001,-203.9133 316.5001,-203.9132"/>
</g>
<!-- run_inputs -->
<g id="node3" class="node">
<title>run_inputs</title>
<polygon fill="none" stroke="#000000" points="443.7619,-337.5 235.749,-337.5 182.2381,-301.5 390.251,-301.5 443.7619,-337.5"/>
<text text-anchor="start" x="215.5" y="-316.8" font-family="Courier,monospace" font-size="14.00" fill="#000000">run&#45;inputs/</text>
<text text-anchor="start" x="308.5" y="-316.8" font-family="Courier,monospace" font-style="italic" font-size="14.00" fill="#000000">example</text>
<text text-anchor="start" x="367.5" y="-316.8" font-family="Courier,monospace" font-size="14.00" fill="#000000">.json</text>
</g>
<!-- run_inputs&#45;&gt;synth_method -->
<g id="edge1" class="edge">
<title>run_inputs&#45;&gt;synth_method</title>
<path fill="none" stroke="#000000" d="M269.4564,-301.3314C269.4564,-301.3314 269.4564,-275.9133 269.4564,-275.9133"/>
<polygon fill="#000000" stroke="#000000" points="272.9565,-275.9132 269.4564,-265.9133 265.9565,-275.9133 272.9565,-275.9132"/>
</g>
<!-- run_inputs&#45;&gt;privacy_metrics -->
<g id="edge10" class="edge">
<title>run_inputs&#45;&gt;privacy_metrics</title>
<path fill="none" stroke="#000000" d="M356.5436,-301.25C356.5436,-292.125 356.5436,-283 356.5436,-283 356.5436,-283 563.75,-283 563.75,-283 563.75,-283 563.75,-131.6992 563.75,-131.6992"/>
<polygon fill="#000000" stroke="#000000" points="567.2501,-131.6992 563.75,-121.6992 560.2501,-131.6993 567.2501,-131.6992"/>
</g>
<!-- run_inputs&#45;&gt;utility_metrics -->
<g id="edge6" class="edge">
<title>run_inputs&#45;&gt;utility_metrics</title>
<path fill="none" stroke="#000000" d="M207.9738,-319C140.1525,-319 64.5,-319 64.5,-319 64.5,-319 64.5,-103 64.5,-103 64.5,-103 183.2826,-103 183.2826,-103"/>
<polygon fill="#000000" stroke="#000000" points="183.2827,-106.5001 193.2826,-103 183.2826,-99.5001 183.2827,-106.5001"/>
</g>
<!-- synth_data&#45;&gt;privacy_metrics -->
<g id="edge8" class="edge">
<title>synth_data&#45;&gt;privacy_metrics</title>
<path fill="none" stroke="#000000" d="M484.25,-158.8008C484.25,-158.8008 484.25,-131.6222 484.25,-131.6222"/>
<polygon fill="#000000" stroke="#000000" points="487.7501,-131.6221 484.25,-121.6222 480.7501,-131.6222 487.7501,-131.6221"/>
</g>
<!-- synth_data&#45;&gt;utility_metrics -->
<g id="edge4" class="edge">
<title>synth_data&#45;&gt;utility_metrics</title>
<path fill="none" stroke="#000000" d="M246.5,-157.3314C246.5,-157.3314 246.5,-131.9133 246.5,-131.9133"/>
<polygon fill="#000000" stroke="#000000" points="250.0001,-131.9132 246.5,-121.9133 243.0001,-131.9133 250.0001,-131.9132"/>
</g>
<!-- privacy_score -->
<g id="node7" class="node">
<title>privacy_score</title>
<path fill="none" stroke="#000000" d="M776,-44.7975C776,-47.2557 694.8729,-49.2525 595,-49.2525 495.1271,-49.2525 414,-47.2557 414,-44.7975 414,-44.7975 414,-4.7025 414,-4.7025 414,-2.2443 495.1271,-.2475 595,-.2475 694.8729,-.2475 776,-2.2443 776,-4.7025 776,-4.7025 776,-44.7975 776,-44.7975"/>
<path fill="none" stroke="#000000" d="M776,-44.7975C776,-42.3393 694.8729,-40.3425 595,-40.3425 495.1271,-40.3425 414,-42.3393 414,-44.7975"/>
<text text-anchor="start" x="422" y="-28.55" font-family="Courier,monospace" font-size="14.00" fill="#000000">synth&#45;output/</text>
<text text-anchor="start" x="532" y="-28.55" font-family="Courier,monospace" font-style="italic" font-size="14.00" fill="#000000">example</text>
<text text-anchor="start" x="591" y="-28.55" font-family="Courier,monospace" font-size="14.00" fill="#000000">/disclosure_risk.json</text>
<text text-anchor="start" x="582" y="-14.55" font-family="Courier,monospace" font-size="14.00" fill="#000000">...</text>
</g>
<!-- privacy_metrics&#45;&gt;privacy_score -->
<g id="edge9" class="edge">
<title>privacy_metrics&#45;&gt;privacy_score</title>
<path fill="none" stroke="#000000" d="M557,-85.2352C557,-85.2352 557,-59.4779 557,-59.4779"/>
<polygon fill="#000000" stroke="#000000" points="560.5001,-59.4779 557,-49.4779 553.5001,-59.4779 560.5001,-59.4779"/>
</g>
<!-- utility_score -->
<g id="node8" class="node">
<title>utility_score</title>
<path fill="none" stroke="#000000" d="M396,-44.7975C396,-47.2557 307.2532,-49.2525 198,-49.2525 88.7468,-49.2525 0,-47.2557 0,-44.7975 0,-44.7975 0,-4.7025 0,-4.7025 0,-2.2443 88.7468,-.2475 198,-.2475 307.2532,-.2475 396,-2.2443 396,-4.7025 396,-4.7025 396,-44.7975 396,-44.7975"/>
<path fill="none" stroke="#000000" d="M396,-44.7975C396,-42.3393 307.2532,-40.3425 198,-40.3425 88.7468,-40.3425 0,-42.3393 0,-44.7975"/>
<text text-anchor="start" x="8" y="-28.55" font-family="Courier,monospace" font-size="14.00" fill="#000000">synth&#45;output/</text>
<text text-anchor="start" x="118" y="-28.55" font-family="Courier,monospace" font-style="italic" font-size="14.00" fill="#000000">example</text>
<text text-anchor="start" x="177" y="-28.55" font-family="Courier,monospace" font-size="14.00" fill="#000000">/sklearn_classifiers.json</text>
<text text-anchor="start" x="185" y="-14.55" font-family="Courier,monospace" font-size="14.00" fill="#000000">...</text>
</g>
<!-- utility_metrics&#45;&gt;utility_score -->
<g id="edge5" class="edge">
<title>utility_metrics&#45;&gt;utility_score</title>
<path fill="none" stroke="#000000" d="M273,-85.2352C273,-85.2352 273,-59.4779 273,-59.4779"/>
<polygon fill="#000000" stroke="#000000" points="276.5001,-59.4779 273,-49.4779 269.5001,-59.4779 276.5001,-59.4779"/>
</g>
</g>
</svg>
