<?xml version="1.0" encoding="UTF-8" standalone="no"?>
<!DOCTYPE svg PUBLIC "-//W3C//DTD SVG 1.1//EN"
 "http://www.w3.org/Graphics/SVG/1.1/DTD/svg11.dtd">
<!-- Generated by graphviz version 2.40.1 (20161225.0304)
 -->
<!-- Title: pipeline Pages: 1 -->
<svg width="792pt" height="346pt"
 viewBox="0.00 0.00 792.00 345.50" xmlns="http://www.w3.org/2000/svg" xmlns:xlink="http://www.w3.org/1999/xlink">
<g id="graph0" class="graph" transform="scale(1 1) rotate(0) translate(4 341.5)">
<title>pipeline</title>
<polygon fill="#ffffff" stroke="transparent" points="-4,4 -4,-341.5 788,-341.5 788,4 -4,4"/>
<!-- dataset -->
<g id="node1" class="node">
<title>dataset</title>
<path fill="none" stroke="#000000" d="M644,-334.2273C644,-336.0331 606.3499,-337.5 560,-337.5 513.6501,-337.5 476,-336.0331 476,-334.2273 476,-334.2273 476,-304.7727 476,-304.7727 476,-302.9669 513.6501,-301.5 560,-301.5 606.3499,-301.5 644,-302.9669 644,-304.7727 644,-304.7727 644,-334.2273 644,-334.2273"/>
<path fill="none" stroke="#000000" d="M644,-334.2273C644,-332.4214 606.3499,-330.9545 560,-330.9545 513.6501,-330.9545 476,-332.4214 476,-334.2273"/>
<text text-anchor="start" x="484" y="-316.8" font-family="Courier,monospace" font-style="italic" font-size="14.00" fill="#000000">dataset</text>
<text text-anchor="start" x="543" y="-316.8" font-family="Courier,monospace" font-size="14.00" fill="#000000">.{csv,json}</text>
</g>
<!-- synth_method -->
<g id="node2" class="node">
<title>synth_method</title>
<polygon fill="none" stroke="#000000" points="454.5,-265.5 185.5,-265.5 185.5,-229.5 454.5,-229.5 454.5,-265.5"/>
<text text-anchor="start" x="193.5" y="-244.8" font-family="Courier,monospace" font-size="14.00" fill="#000000">synth&#45;methods/</text>
<text text-anchor="start" x="311.5" y="-244.8" font-family="Courier,monospace" font-style="italic" font-size="14.00" fill="#000000">synth&#45;method</text>
<text text-anchor="start" x="412.5" y="-244.8" font-family="Courier,monospace" font-size="14.00" fill="#000000">/run</text>
</g>
<!-- dataset&#45;&gt;synth_method -->
<g id="edge3" class="edge">
<title>dataset&#45;&gt;synth_method</title>
<path fill="none" stroke="#000000" d="M487,-302.3185C487,-280.8793 487,-247 487,-247 487,-247 464.8007,-247 464.8007,-247"/>
<polygon fill="#000000" stroke="#000000" points="464.8008,-243.5001 454.8007,-247 464.8007,-250.5001 464.8008,-243.5001"/>
</g>
<!-- privacy_metrics -->
<g id="node5" class="node">
<title>privacy_metrics</title>
<polygon fill="none" stroke="#000000" points="643.5,-121.5 484.5,-121.5 484.5,-85.5 643.5,-85.5 643.5,-121.5"/>
<text text-anchor="middle" x="564" y="-99.8" font-family="Courier,monospace" font-size="14.00" fill="#000000">privacy&#45;metrics/*</text>
</g>
<!-- dataset&#45;&gt;privacy_metrics -->
<g id="edge11" class="edge">
<title>dataset&#45;&gt;privacy_metrics</title>
<path fill="none" stroke="#000000" d="M607.125,-301.4555C607.125,-301.4555 607.125,-131.6451 607.125,-131.6451"/>
<polygon fill="#000000" stroke="#000000" points="610.6251,-131.645 607.125,-121.6451 603.6251,-131.6451 610.6251,-131.645"/>
</g>
<!-- utility_metrics -->
<g id="node6" class="node">
<title>utility_metrics</title>
<polygon fill="none" stroke="#000000" points="358.5,-121.5 199.5,-121.5 199.5,-85.5 358.5,-85.5 358.5,-121.5"/>
<text text-anchor="middle" x="279" y="-99.8" font-family="Courier,monospace" font-size="14.00" fill="#000000">utility&#45;metrics/*</text>
</g>
<!-- dataset&#45;&gt;utility_metrics -->
<g id="edge7" class="edge">
<title>dataset&#45;&gt;utility_metrics</title>
<path fill="none" stroke="#000000" d="M534.375,-301.1994C534.375,-255.311 534.375,-139 534.375,-139 534.375,-139 305.5,-139 305.5,-139 305.5,-139 305.5,-131.666 305.5,-131.666"/>
<polygon fill="#000000" stroke="#000000" points="309.0001,-131.6659 305.5,-121.666 302.0001,-131.666 309.0001,-131.6659"/>
</g>
<!-- synth_data -->
<g id="node4" class="node">
<title>synth_data</title>
<path fill="none" stroke="#000000" d="M498,-190.2273C498,-192.0331 416.8729,-193.5 317,-193.5 217.1271,-193.5 136,-192.0331 136,-190.2273 136,-190.2273 136,-160.7727 136,-160.7727 136,-158.9669 217.1271,-157.5 317,-157.5 416.8729,-157.5 498,-158.9669 498,-160.7727 498,-160.7727 498,-190.2273 498,-190.2273"/>
<path fill="none" stroke="#000000" d="M498,-190.2273C498,-188.4214 416.8729,-186.9545 317,-186.9545 217.1271,-186.9545 136,-188.4214 136,-190.2273"/>
<text text-anchor="start" x="144" y="-172.8" font-family="Courier,monospace" font-size="14.00" fill="#000000">synth&#45;output/</text>
<text text-anchor="start" x="254" y="-172.8" font-family="Courier,monospace" font-style="italic" font-size="14.00" fill="#000000">example</text>
<text text-anchor="start" x="313" y="-172.8" font-family="Courier,monospace" font-size="14.00" fill="#000000">/synthetic_data_*.csv</text>
</g>
<!-- synth_method&#45;&gt;synth_data -->
<g id="edge2" class="edge">
<title>synth_method&#45;&gt;synth_data</title>
<path fill="none" stroke="#000000" d="M320,-229.3314C320,-229.3314 320,-203.9133 320,-203.9133"/>
<polygon fill="#000000" stroke="#000000" points="323.5001,-203.9132 320,-193.9133 316.5001,-203.9133 323.5001,-203.9132"/>
</g>
<!-- run_inputs -->
<g id="node3" class="node">
<title>run_inputs</title>
<polygon fill="none" stroke="#000000" points="450.7619,-337.5 242.749,-337.5 189.2381,-301.5 397.251,-301.5 450.7619,-337.5"/>
<text text-anchor="start" x="222.5" y="-316.8" font-family="Courier,monospace" font-size="14.00" fill="#000000">run&#45;inputs/</text>
<text text-anchor="start" x="315.5" y="-316.8" font-family="Courier,monospace" font-style="italic" font-size="14.00" fill="#000000">example</text>
<text text-anchor="start" x="374.5" y="-316.8" font-family="Courier,monospace" font-size="14.00" fill="#000000">.json</text>
</g>
<!-- run_inputs&#45;&gt;synth_method -->
<g id="edge1" class="edge">
<title>run_inputs&#45;&gt;synth_method</title>
<path fill="none" stroke="#000000" d="M276.4564,-301.3314C276.4564,-301.3314 276.4564,-275.9133 276.4564,-275.9133"/>
<polygon fill="#000000" stroke="#000000" points="279.9565,-275.9132 276.4564,-265.9133 272.9565,-275.9133 279.9565,-275.9132"/>
</g>
<!-- run_inputs&#45;&gt;privacy_metrics -->
<g id="edge10" class="edge">
<title>run_inputs&#45;&gt;privacy_metrics</title>
<path fill="none" stroke="#000000" d="M363.5436,-301.25C363.5436,-292.125 363.5436,-283 363.5436,-283 363.5436,-283 570.75,-283 570.75,-283 570.75,-283 570.75,-131.6992 570.75,-131.6992"/>
<polygon fill="#000000" stroke="#000000" points="574.2501,-131.6992 570.75,-121.6992 567.2501,-131.6993 574.2501,-131.6992"/>
</g>
<!-- run_inputs&#45;&gt;utility_metrics -->
<g id="edge6" class="edge">
<title>run_inputs&#45;&gt;utility_metrics</title>
<path fill="none" stroke="#000000" d="M214.9541,-319C145.8082,-319 68,-319 68,-319 68,-319 68,-103 68,-103 68,-103 189.2299,-103 189.2299,-103"/>
<polygon fill="#000000" stroke="#000000" points="189.23,-106.5001 199.2299,-103 189.2299,-99.5001 189.23,-106.5001"/>
</g>
<!-- synth_data&#45;&gt;privacy_metrics -->
<g id="edge8" class="edge">
<title>synth_data&#45;&gt;privacy_metrics</title>
<path fill="none" stroke="#000000" d="M491.25,-158.8008C491.25,-158.8008 491.25,-131.6222 491.25,-131.6222"/>
<polygon fill="#000000" stroke="#000000" points="494.7501,-131.6221 491.25,-121.6222 487.7501,-131.6222 494.7501,-131.6221"/>
</g>
<!-- synth_data&#45;&gt;utility_metrics -->
<g id="edge4" class="edge">
<title>synth_data&#45;&gt;utility_metrics</title>
<path fill="none" stroke="#000000" d="M252.5,-157.3314C252.5,-157.3314 252.5,-131.9133 252.5,-131.9133"/>
<polygon fill="#000000" stroke="#000000" points="256.0001,-131.9132 252.5,-121.9133 249.0001,-131.9133 256.0001,-131.9132"/>
</g>
<!-- privacy_score -->
<g id="node7" class="node">
<title>privacy_score</title>
<path fill="none" stroke="#000000" d="M784,-44.7975C784,-47.2557 702.8729,-49.2525 603,-49.2525 503.1271,-49.2525 422,-47.2557 422,-44.7975 422,-44.7975 422,-4.7025 422,-4.7025 422,-2.2443 503.1271,-.2475 603,-.2475 702.8729,-.2475 784,-2.2443 784,-4.7025 784,-4.7025 784,-44.7975 784,-44.7975"/>
<path fill="none" stroke="#000000" d="M784,-44.7975C784,-42.3393 702.8729,-40.3425 603,-40.3425 503.1271,-40.3425 422,-42.3393 422,-44.7975"/>
<text text-anchor="start" x="430" y="-28.55" font-family="Courier,monospace" font-size="14.00" fill="#000000">synth&#45;output/</text>
<text text-anchor="start" x="540" y="-28.55" font-family="Courier,monospace" font-style="italic" font-size="14.00" fill="#000000">example</text>
<text text-anchor="start" x="599" y="-28.55" font-family="Courier,monospace" font-size="14.00" fill="#000000">/disclosure_risk.json</text>
<text text-anchor="start" x="590" y="-14.55" font-family="Courier,monospace" font-size="14.00" fill="#000000">...</text>
</g>
<!-- privacy_metrics&#45;&gt;privacy_score -->
<g id="edge9" class="edge">
<title>privacy_metrics&#45;&gt;privacy_score</title>
<path fill="none" stroke="#000000" d="M564,-85.2352C564,-85.2352 564,-59.4779 564,-59.4779"/>
<polygon fill="#000000" stroke="#000000" points="567.5001,-59.4779 564,-49.4779 560.5001,-59.4779 567.5001,-59.4779"/>
</g>
<!-- utility_score -->
<g id="node8" class="node">
<title>utility_score</title>
<path fill="none" stroke="#000000" d="M404,-44.7975C404,-47.2557 313.4604,-49.2525 202,-49.2525 90.5396,-49.2525 0,-47.2557 0,-44.7975 0,-44.7975 0,-4.7025 0,-4.7025 0,-2.2443 90.5396,-.2475 202,-.2475 313.4604,-.2475 404,-2.2443 404,-4.7025 404,-4.7025 404,-44.7975 404,-44.7975"/>
<path fill="none" stroke="#000000" d="M404,-44.7975C404,-42.3393 313.4604,-40.3425 202,-40.3425 90.5396,-40.3425 0,-42.3393 0,-44.7975"/>
<text text-anchor="start" x="8" y="-28.55" font-family="Courier,monospace" font-size="14.00" fill="#000000">synth&#45;output/</text>
<text text-anchor="start" x="118" y="-28.55" font-family="Courier,monospace" font-style="italic" font-size="14.00" fill="#000000">example</text>
<text text-anchor="start" x="177" y="-28.55" font-family="Courier,monospace" font-size="14.00" fill="#000000">/sklearn_classifiers .json</text>
<text text-anchor="start" x="189" y="-14.55" font-family="Courier,monospace" font-size="14.00" fill="#000000">...</text>
</g>
<!-- utility_metrics&#45;&gt;utility_score -->
<g id="edge5" class="edge">
<title>utility_metrics&#45;&gt;utility_score</title>
<path fill="none" stroke="#000000" d="M279,-85.2352C279,-85.2352 279,-59.4779 279,-59.4779"/>
<polygon fill="#000000" stroke="#000000" points="282.5001,-59.4779 279,-49.4779 275.5001,-59.4779 282.5001,-59.4779"/>
</g>
</g>
</svg>
